<?xml version="1.0" encoding="UTF-8" standalone="no"?>
<svg width="117px" height="32px" viewBox="0 0 117 32" version="1.1" xmlns="http://www.w3.org/2000/svg" xmlns:xlink="http://www.w3.org/1999/xlink" xmlns:sketch="http://www.bohemiancoding.com/sketch/ns">
    <!-- Generator: Sketch 3.4.4 (17249) - http://www.bohemiancoding.com/sketch -->
    <title>Group + Group</title>
    <desc>Created with Sketch.</desc>
    <defs></defs>
    <g id="Page-1" stroke="none" stroke-width="1" fill="none" fill-rule="evenodd" sketch:type="MSPage">
        <g id="Group-+-Group" sketch:type="MSLayerGroup" fill="#FFFFFF">
            <g id="Group" transform="translate(44.588313, 21.366047)" sketch:type="MSShapeGroup">
                <path d="M1.50461,6.68108657 L0.670316256,8.08998586 L0.0563540215,8.08998586 L3.21387408,2.89159011 L4.64221548,8.08998586 L4.02147382,8.08998586 L3.65411339,6.68108657 L1.50461,6.68108657 L1.50461,6.68108657 L1.50461,6.68108657 Z M2.99311886,4.18106285 L1.81180298,6.16788644 L3.51386391,6.16788644 L2.99311886,4.18106285 L2.99311886,4.18106285 L2.99311886,4.18106285 Z" id="Fill-1"></path>
                <path d="M49.8589027,4.22365553 C49.5271343,3.819025 49.0169821,3.57056766 48.4390356,3.57056766 C47.3229718,3.57056766 46.2679228,4.52556252 46.0958947,5.61125848 C45.9170872,6.69653686 46.6734175,7.65153172 47.7945659,7.65153172 C48.3589536,7.65153172 48.956391,7.39012954 49.4135788,6.99844385 L49.3076502,7.67783897 C48.824192,7.98475687 48.2657364,8.16139125 47.7352459,8.16139125 C46.3213108,8.16139125 45.306091,7.02934443 45.5315071,5.63004937 C45.7564994,4.21697433 47.1174703,3.05945541 48.5504725,3.05945541 C49.1089282,3.05945541 49.5800986,3.21688132 49.9716108,3.54342526 L49.8589027,4.22365553" id="Fill-2"></path>
                <path d="M49.8855967,6.544957 C50.0305071,5.64215906 50.87497,4.91724822 51.7897695,4.91724822 C52.7062638,4.91724822 53.3096332,5.64257663 53.1638754,6.544957 C53.0185414,7.44859009 52.1749259,8.16097367 51.2656347,8.16097367 C50.3563435,8.16097367 49.7389915,7.44859009 49.8855967,6.544957 M50.4165109,6.53869337 C50.316938,7.16672672 50.6889593,7.6774214 51.3457167,7.6774214 C52.0020504,7.6774214 52.5342357,7.16672672 52.6333849,6.53869337 C52.7325341,5.91734122 52.3681397,5.40205322 51.7109586,5.40205322 C51.0542012,5.40205322 50.5156601,5.91734122 50.4165109,6.53869337" id="Fill-3"></path>
                <path d="M54.3536656,5.33524116 L54.3659533,5.33524116 C54.578658,5.08010261 54.8710209,4.91724822 55.1888068,4.91724822 C55.554896,4.91724822 55.8523436,5.10682743 55.9663228,5.42794289 C56.2052977,5.08678382 56.6095213,4.91724822 56.9870509,4.91724822 C57.7844815,4.91724822 57.8776986,5.55780883 57.7704989,6.2042155 L57.4730513,8.07620587 L56.9417134,8.07620587 L57.2277207,6.2906536 C57.2929727,5.89186913 57.3463607,5.40163564 56.8023114,5.40163564 C56.19301,5.40163564 56.0319985,5.98248298 55.9523402,6.44766194 L55.6942981,8.07620587 L55.1629602,8.07620587 L55.4430354,6.33032326 C55.5023555,5.95074725 55.5481166,5.40163564 55.0383881,5.40163564 C54.413833,5.40163564 54.2481607,6.02215264 54.1685024,6.48649645 L53.9163923,8.07620587 L53.3859018,8.07620587 L53.8769868,5.00159844 L54.4070536,5.00159844 L54.3536656,5.33524116" id="Fill-4"></path>
                <path d="M59.0124059,5.439635 L59.0251174,5.439635 C59.3361238,5.10014623 59.7547536,4.91808337 60.1869424,4.91808337 C61.1021656,4.91808337 61.5534215,5.69519113 61.4144431,6.54579215 C61.2741937,7.423118 60.5915897,8.16139125 59.6556045,8.16139125 C59.2310426,8.16139125 58.865377,7.97891081 58.6658075,7.64568567 L58.6530961,7.64568567 L58.3069214,9.80288002 L57.7768546,9.80288002 L58.5471675,5.00201602 L59.0768105,5.00201602 L59.0124059,5.439635 L59.0124059,5.439635 L59.0124059,5.439635 Z M58.8136839,6.50695764 C58.714111,7.10826617 58.9857119,7.67700382 59.648825,7.67700382 C60.3335476,7.67700382 60.7776003,7.13457342 60.8771732,6.51363885 C60.9758987,5.89813276 60.6644686,5.40205322 60.0072875,5.40205322 C59.3907829,5.40163564 58.9056299,5.93112121 58.8136839,6.50695764 L58.8136839,6.50695764 L58.8136839,6.50695764 Z" id="Fill-5"></path>
                <path d="M64.6283172,8.07620587 L64.0969793,8.07620587 L64.1630788,7.65111415 L64.1503673,7.65111415 C63.8245309,7.99185565 63.4317476,8.16097367 62.9953217,8.16097367 C62.0784037,8.16097367 61.6207921,7.39681075 61.7601941,6.544957 C61.9004436,5.6684663 62.589827,4.91724822 63.5258122,4.91724822 C63.9503741,4.91724822 64.3029045,5.11309107 64.5079823,5.43921743 L64.5215412,5.43921743 L64.5863695,5.00076329 L65.1189785,5.00076329 L64.6283172,8.07620587 L64.6283172,8.07620587 L64.6283172,8.07620587 Z M62.312294,6.50695764 C62.2118737,7.10826617 62.4838984,7.67700382 63.1482827,7.67700382 C63.8317341,7.67700382 64.2757868,7.13457342 64.3762071,6.51363885 C64.4749326,5.89813276 64.1630788,5.40205322 63.5058976,5.40205322 C62.8889694,5.40163564 62.4046638,5.93112121 62.312294,6.50695764 L62.312294,6.50695764 L62.312294,6.50695764 Z" id="Fill-6"></path>
                <path d="M66.1481809,5.37449325 L66.1608924,5.37449325 C66.432917,5.08010261 66.7447709,4.91724822 67.1295036,4.91724822 C67.9934574,4.91724822 68.0926065,5.53233673 67.9726953,6.25140152 L67.6803324,8.07620587 L67.1502656,8.07620587 L67.4277986,6.34285052 C67.5074569,5.84551826 67.541354,5.40163564 66.9235784,5.40163564 C66.1943658,5.40163564 66.0414049,6.06766836 65.9490351,6.61636239 L65.7164159,8.07620587 L65.1863491,8.07620587 L65.6770105,5.00159844 L66.2070772,5.00159844 L66.1481809,5.37449325" id="Fill-7"></path>
                <path d="M68.3985284,5.00159844 L69.0146092,5.00159844 L69.7658549,7.20514366 L71.1251308,5.00159844 L71.7297714,5.00159844 L68.6578416,9.80329759 L68.0527774,9.80329759 L69.3866305,7.78766129 L68.3985284,5.00159844" id="Fill-8"></path>
                <path d="M31.8582419,3.18514559 C31.7086707,4.15517317 30.9574249,4.15517317 30.230331,4.15517317 L29.8172094,4.15517317 L30.1070301,2.34456638 C30.1244023,2.23557921 30.2205855,2.15498716 30.3324461,2.15498716 L30.5222702,2.15498716 C31.0171687,2.15498716 31.484102,2.15498716 31.7251955,2.43225721 C31.8692584,2.5984522 31.912901,2.84523925 31.8582419,3.18514559 M31.5421509,0.655891595 L28.8019896,0.655891595 C28.6138603,0.655891595 28.45412,0.789933288 28.4253074,0.972831299 L27.3168704,7.89873634 C27.295261,8.03528349 27.4028844,8.15846822 27.5427102,8.15846822 L28.9485948,8.15846822 C29.0799462,8.15846822 29.1918068,8.06409619 29.2121451,7.93715327 L29.5265413,5.97329632 C29.5553538,5.79081589 29.7150942,5.65635662 29.902376,5.65635662 L30.7697194,5.65635662 C32.5751667,5.65635662 33.6166568,4.79573379 33.8891052,3.08910326 C34.0115587,2.34289608 33.8941898,1.75662026 33.5395408,1.34614368 C33.1501472,0.894744705 32.4594927,0.655891595 31.5421509,0.655891595" id="Fill-9"></path>
                <path d="M12.3110233,3.18514559 C12.1610284,4.15517317 11.4097826,4.15517317 10.6826886,4.15517317 L10.2691433,4.15517317 L10.5593877,2.34456638 C10.57676,2.23557921 10.6729432,2.15498716 10.7848038,2.15498716 L10.9746279,2.15498716 C11.4695264,2.15498716 11.9364597,2.15498716 12.1779769,2.43225721 C12.3220398,2.5984522 12.3656824,2.84523925 12.3110233,3.18514559 M11.9945086,0.655891595 L9.25392353,0.655891595 C9.06621803,0.655891595 8.9069014,0.789933288 8.8776651,0.972831299 L7.76965182,7.89873634 C7.74719495,8.03528349 7.85481842,8.15846822 7.99464419,8.15846822 L9.30349812,8.15846822 C9.4907799,8.15846822 9.65009654,8.02400895 9.67975655,7.84194609 L9.97932266,5.97329632 C10.0081352,5.79081589 10.1678756,5.65635662 10.3551574,5.65635662 L11.2220771,5.65635662 C13.0271007,5.65635662 14.0694382,4.79573379 14.3414629,3.08910326 C14.4643401,2.34289608 14.3465475,1.75662026 13.9923222,1.34614368 C13.6020812,0.894744705 12.9114266,0.655891595 11.9945086,0.655891595" id="Fill-10"></path>
                <path d="M18.3574284,5.67180691 C18.2303141,6.41049773 17.635419,6.90699484 16.8761227,6.90699484 C16.4956271,6.90699484 16.1905527,6.78589799 15.9947967,6.55790184 C15.8007355,6.33115841 15.7274329,6.00837265 15.7888714,5.64925784 C15.9070878,4.91641307 16.512152,4.40488324 17.2595843,4.40488324 C17.632453,4.40488324 17.9349851,4.52639767 18.1349783,4.75731685 C18.3353953,4.98948876 18.4146299,5.31394482 18.3574284,5.67180691 M20.18618,3.15424502 L18.8739363,3.15424502 C18.761652,3.15424502 18.6654688,3.23483706 18.6480965,3.34465938 L18.5904714,3.70586208 L18.4989491,3.57516099 C18.2146367,3.16844258 17.5811836,3.03273059 16.9485779,3.03273059 C15.4982033,3.03273059 14.2601097,4.11508594 14.0190162,5.63422512 C13.8940204,6.39170684 14.0719805,7.1162001 14.507559,7.62104872 C14.9079691,8.08539253 15.4795599,8.27831235 16.1600453,8.27831235 C17.3290735,8.27831235 17.9773566,7.53878637 17.9773566,7.53878637 L17.9184603,7.89831877 C17.8968508,8.03486591 18.0036269,8.15846822 18.1447238,8.15846822 L19.3260397,8.15846822 C19.5137452,8.15846822 19.6730618,8.02442653 19.7022981,7.84194609 L20.4124435,3.41439447 C20.4336292,3.27784733 20.3264295,3.15424502 20.18618,3.15424502" id="Fill-11"></path>
                <path d="M37.9050707,5.67180691 C37.7783801,6.41049773 37.1830613,6.90699484 36.423765,6.90699484 C36.0428457,6.90699484 35.7381951,6.78589799 35.542439,6.55790184 C35.3479541,6.33115841 35.2750752,6.00837265 35.3369375,5.64925784 C35.4547301,4.91641307 36.0593706,4.40488324 36.8072266,4.40488324 C37.1800953,4.40488324 37.4826274,4.52639767 37.6821969,4.75731685 C37.8834613,4.98948876 37.9626959,5.31394482 37.9050707,5.67180691 M39.7338223,3.15424502 L38.4215787,3.15424502 C38.3092943,3.15424502 38.2135349,3.23483706 38.1957389,3.34465938 L38.1381137,3.70586208 L38.0465914,3.57516099 C37.7618553,3.16844258 37.1284022,3.03273059 36.4957965,3.03273059 C35.0462694,3.03273059 33.807752,4.11508594 33.5666585,5.63422512 C33.441239,6.39170684 33.6191991,7.1162001 34.0552013,7.62104872 C34.4560351,8.08539253 35.0272022,8.27831235 35.7081113,8.27831235 C36.8771395,8.27831235 37.5245752,7.53878637 37.5245752,7.53878637 L37.4661026,7.89831877 C37.4440694,8.03486591 37.5516929,8.15846822 37.6923661,8.15846822 L38.873682,8.15846822 C39.0613875,8.15846822 39.2207041,8.02442653 39.2503641,7.84194609 L39.9596621,3.41439447 C39.9816952,3.27784733 39.8740718,3.15424502 39.7338223,3.15424502" id="Fill-12"></path>
                <path d="M27.1757735,3.15424502 L25.8567504,3.15424502 C25.7304835,3.15424502 25.6126909,3.21604617 25.5419306,3.31918729 L23.722077,5.95993391 L22.9509168,3.42191083 C22.9026133,3.26323219 22.7543132,3.15424502 22.5860986,3.15424502 L21.2895324,3.15424502 C21.1331818,3.15424502 21.0225923,3.30582488 21.073438,3.45239383 L22.5259312,7.65403718 L21.1594521,9.55316995 C21.0522523,9.70266193 21.1602995,9.90852658 21.3458864,9.90852658 L22.6636384,9.90852658 C22.7886341,9.90852658 22.9055793,9.84839573 22.977187,9.74776007 L27.363479,3.50793135 C27.4681365,3.35843937 27.360513,3.15424502 27.1757735,3.15424502" id="Fill-13"></path>
                <path d="M41.2808037,0.845888387 L40.1558419,7.89873634 C40.1342324,8.03528349 40.2410085,8.15888579 40.3816817,8.15888579 L41.5129993,8.15888579 C41.6998573,8.15888579 41.8595977,8.02442653 41.888834,7.84194609 L42.9981184,0.916041049 C43.0197278,0.779493904 42.9129518,0.655891595 42.7722786,0.655891595 L41.5066435,0.655891595 C41.3935118,0.655891595 41.2977523,0.736483641 41.2808037,0.845888387" id="Fill-14"></path>
            </g>
            <g id="Group" transform="translate(0.000000, 0.186047)" sketch:type="MSShapeGroup">
                <path d="M0.0566407994,15.0598508 L0.0566407994,13.099059 L1.65876627,13.099059 L1.65876627,3.64141186 L0.0566407994,3.64141186 L0.0566407994,1.68062003 L6.46514267,1.68062003 C9.40663141,1.68062003 11.1999728,2.99520915 11.1999728,5.27889693 C11.1999728,6.77835015 10.2915907,7.70102738 9.14344333,8.13936069 C10.7936922,8.577694 11.9652624,9.70782984 11.9652624,11.2537045 C11.9652624,13.6988402 10.004128,15.0598508 6.79987702,15.0598508 L0.0566407994,15.0598508 L0.0566407994,15.0598508 L0.0566407994,15.0598508 Z M3.85838829,3.64141186 L3.85838829,7.28611019 L6.25007799,7.28611019 C8.04341939,7.28611019 8.97607616,6.64031829 8.97607616,5.46335022 C8.97607616,4.26419846 8.01957063,3.64141186 6.22580336,3.64141186 L3.85838829,3.64141186 L3.85838829,3.64141186 L3.85838829,3.64141186 Z M3.85838829,13.099059 L6.58481233,13.099059 C8.68903932,13.099059 9.74136576,12.4302617 9.74136576,11.1382671 C9.74136576,9.86968862 8.61749305,9.17747529 6.41744516,9.17747529 L3.85838829,9.17747529 L3.85838829,13.099059 L3.85838829,13.099059 L3.85838829,13.099059 Z" id="Fill-15"></path>
                <path d="M23.5876989,8.09335007 C23.3487855,7.3091155 22.750863,6.84777688 21.9617247,6.84777688 C20.1202599,6.84777688 18.374616,8.16277681 18.374616,10.5614911 L18.374616,13.099059 L21.9140272,13.099059 L21.9140272,15.0598508 L14.0222178,15.0598508 L14.0222178,13.099059 L16.270389,13.099059 L16.270389,7.19367815 L14.5004705,7.19367815 L14.5004705,5.23288631 L18.3507673,5.23288631 L18.3507673,6.8937875 C18.9963872,5.74023555 20.3114758,4.90999036 22.0571197,4.90999036 C24.0182542,4.90999036 25.2379478,5.99411557 25.5965309,7.53957941 L23.5876989,8.09335007" id="Fill-16"></path>
                <path d="M34.3494508,9.33892327 L34.3494508,8.7851526 C34.3494508,7.40113674 33.2017293,6.82477157 31.958187,6.82477157 C30.7861909,6.82477157 29.7819878,7.28611019 28.9690007,8.00091803 L27.58194,6.54788624 C28.5384455,5.69422493 29.9016575,4.90999036 31.958187,4.90999036 C34.516818,4.90999036 36.5018012,6.22499029 36.5018012,8.71613667 L36.5018012,13.099059 L37.984257,13.099059 L37.984257,15.0598508 L34.3494508,15.0598508 L34.3494508,14.0217362 C33.7992259,14.8753975 32.3167701,15.3827467 30.858163,15.3827467 C28.7535102,15.3827467 26.9358941,14.3446321 26.9358941,12.2918191 C26.9358941,9.86968862 29.3991301,8.94701138 31.6473014,8.94701138 C32.7473253,8.94701138 33.6561334,9.15446998 34.3494508,9.33892327 M34.3494508,11.0922565 C33.6795562,10.8613818 32.6753532,10.6769285 31.7426964,10.6769285 C30.403759,10.6769285 29.1120933,11.0922565 29.1120933,12.2688138 C29.1120933,13.1450696 29.9255063,13.5603976 31.049379,13.5603976 C32.6038069,13.5603976 34.3494508,12.7531577 34.3494508,11.368731 L34.3494508,11.0922565" id="Fill-17"></path>
                <path d="M50.7548408,13.099059 L50.7548408,15.0598508 L40.4717676,15.0598508 L40.4717676,13.099059 L44.728345,13.099059 L44.728345,7.19367815 L41.4759706,7.19367815 L41.4759706,5.23288631 L46.8329978,5.23288631 L46.8329978,13.099059 L50.7548408,13.099059 L50.7548408,13.099059 L50.7548408,13.099059 Z M44.4655828,0.273188051 L46.8329978,0.273188051 L46.8329978,3.27209448 L44.4655828,3.27209448 L44.4655828,0.273188051 L44.4655828,0.273188051 Z" id="Fill-18"></path>
                <path d="M53.290049,13.099059 L54.8444769,13.099059 L54.8444769,7.19367815 L53.3858699,7.19367815 L53.3858699,5.23288631 L56.9248551,5.23288631 L56.9248551,6.50146481 C57.5466263,5.53277696 58.8382921,4.90999036 60.4165688,4.90999036 C62.6881629,4.90999036 64.3141372,6.29400622 64.3141372,8.53168338 L64.3141372,13.099059 L65.8685651,13.099059 L65.8685651,15.0598508 L60.5835101,15.0598508 L60.5835101,13.099059 L62.2099102,13.099059 L62.2099102,9.08504324 C62.2099102,7.37813143 61.133735,6.8937875 60.1533807,6.8937875 C58.5508294,6.8937875 56.9487039,8.04692865 56.9487039,9.82326719 L56.9487039,13.099059 L58.575104,13.099059 L58.575104,15.0598508 L53.290049,15.0598508 L53.290049,13.099059" id="Fill-19"></path>
                <path d="M68.7627822,7.19367815 L66.1083303,7.19367815 L66.1083303,5.2324755 L68.7627822,5.2324755 L68.7627822,1.68062003 L70.8670092,1.68062003 L70.8670092,5.2324755 L75.8173299,5.2324755 L75.8173299,7.19367815 L70.8670092,7.19367815 L70.8670092,11.3227204 C70.8670092,12.8455897 71.967459,13.4683763 73.2344243,13.4683763 C74.4302691,13.4683763 75.4344722,12.8221736 76.175913,12.1073658 L77.5868225,13.514387 C76.6541658,14.4830748 75.2194075,15.3827467 73.2344243,15.3827467 C70.6757933,15.3827467 68.7627822,14.0217362 68.7627822,11.3917363 L68.7627822,7.19367815" id="Fill-20"></path>
                <path d="M89.0657406,8.09335007 C88.8264013,7.3091155 88.2289048,6.84777688 87.4397664,6.84777688 C85.5983016,6.84777688 83.8526577,8.16277681 83.8526577,10.5614911 L83.8526577,13.099059 L87.3920689,13.099059 L87.3920689,15.0598508 L79.5002595,15.0598508 L79.5002595,13.099059 L81.7484308,13.099059 L81.7484308,7.19367815 L79.9785122,7.19367815 L79.9785122,5.23288631 L83.8283831,5.23288631 L83.8283831,6.8937875 C84.4744289,5.74023555 85.7895176,4.90999036 87.5351614,4.90999036 C89.4962959,4.90999036 90.7159895,5.99411557 91.0741467,7.53957941 L89.0657406,8.09335007" id="Fill-21"></path>
                <path d="M103.222959,13.5603976 C102.171059,14.6215175 100.305745,15.3827467 98.2249412,15.3827467 C94.8056256,15.3827467 92.4143617,13.1680749 92.4143617,10.1461631 C92.4143617,7.12425141 94.7336534,4.90999036 97.962179,4.90999036 C101.16643,4.90999036 103.414601,7.28611019 103.414601,10.5154805 L103.414601,10.8613818 L94.6382584,10.8613818 C94.9968415,12.4992777 96.407751,13.4909708 98.2487899,13.4909708 C99.7793691,13.4909708 101.094884,12.8916004 101.812476,12.1303711 L103.222959,13.5603976 L103.222959,13.5603976 L103.222959,13.5603976 Z M94.7336534,9.13146467 L100.999063,9.13146467 C100.688177,7.7244435 99.3969373,6.77835015 97.962179,6.77835015 C96.3357789,6.77835015 95.0926624,7.747038 94.7336534,9.13146467 L94.7336534,9.13146467 L94.7336534,9.13146467 Z" id="Fill-22"></path>
                <path d="M116.304429,13.5603976 C115.252102,14.6215175 113.386789,15.3827467 111.306411,15.3827467 C107.887095,15.3827467 105.495405,13.1680749 105.495405,10.1461631 C105.495405,7.12425141 107.815123,4.90999036 111.043223,4.90999036 C114.247899,4.90999036 116.495645,7.28611019 116.495645,10.5154805 L116.495645,10.8613818 L107.718876,10.8613818 C108.077885,12.4992777 109.48922,13.4909708 111.330259,13.4909708 C112.860839,13.4909708 114.175927,12.8916004 114.893519,12.1303711 L116.304429,13.5603976 L116.304429,13.5603976 L116.304429,13.5603976 Z M107.815123,9.13146467 L114.080532,9.13146467 C113.769647,7.7244435 112.477981,6.77835015 111.043223,6.77835015 C109.417248,6.77835015 108.17328,7.747038 107.815123,9.13146467 L107.815123,9.13146467 L107.815123,9.13146467 Z" id="Fill-23"></path>
            </g>
        </g>
    </g>
</svg>